<!--?xml version="1.0" standalone="no"?-->
              <svg id="sw-js-blob-svg" viewBox="0 0 100 100" xmlns="http://www.w3.org/2000/svg" version="1.1">
                    <defs> 
                        <linearGradient id="sw-gradient" x1="0" x2="1" y1="1" y2="0">
                            <stop id="stop1" stop-color="rgba(255, 255, 255, 1)" offset="0%"></stop>
                            <stop id="stop2" stop-color="rgba(255, 255, 255, 1)" offset="100%"></stop>
                        </linearGradient>
                    </defs>
                <path fill="none" d="M25.5,-32.4C30.7,-26.1,31,-15.8,30.2,-7.2C29.5,1.3,27.7,8.1,24.9,15.6C22.1,23.1,18.2,31.3,11.6,35.1C5,38.9,-4.3,38.3,-12.5,35C-20.6,31.7,-27.5,25.8,-33.1,18.1C-38.7,10.5,-43,1.1,-41.8,-7.7C-40.7,-16.5,-34.1,-24.6,-26.2,-30.5C-18.3,-36.4,-9.2,-40.1,0.5,-40.7C10.2,-41.3,20.3,-38.8,25.5,-32.4Z" width="100%" height="100%" transform="translate(50 50)" stroke-width="1" style="transition: all 0.3s ease 0s;" stroke="url(#sw-gradient)"></path>
              </svg>